<?xml version="1.0" encoding="utf-8"?>
<!-- Generator: Adobe Illustrator 16.0.0, SVG Export Plug-In . SVG Version: 6.00 Build 0)  -->
<!DOCTYPE svg PUBLIC "-//W3C//DTD SVG 1.1//EN" "http://www.w3.org/Graphics/SVG/1.1/DTD/svg11.dtd">
<svg version="1.1" id="Layer_1" xmlns="http://www.w3.org/2000/svg" xmlns:xlink="http://www.w3.org/1999/xlink" x="0px" y="0px"
	 width="512px" height="512px" viewBox="0 0 512 512" enable-background="new 0 0 512 512" xml:space="preserve">
<g>
	<path fill-rule="evenodd" clip-rule="evenodd" d="M296.535,156.25c1.866-2.87,3.576-5.502,5.25-8.076
		c5.735,2.877,11.176,5.079,16.001,8.226c2.907,1.896,6.024,4.904,6.983,8.044c1.807,5.91,5.99,8.985,10.956,10.525
		c6.555,2.033,13.526,2.73,20.321,3.986c1.093,0.202,2.592-0.089,3.243,0.536c7.369,7.056,17.024,11.769,20.295,22.948
		c1.531,5.234,6.331,9.514,9.648,14.226c0.631-0.058,1.261-0.116,1.891-0.173c0.428-2.491,1.227-4.988,1.176-7.47
		c-0.048-2.408-1.142-4.779-1.456-7.207c-0.439-3.384,0.051-5.837,4.121-7.468c3.759-1.504,8.763-3.208,7.709-9.538
		c-0.143-0.847,3.613-3.61,4.737-3.204c9.302,3.368,17.011-1.668,24.958-4.528c4.763-1.715,8.81-1.264,13.073,0.589
		c14.934,6.492,20.929,22.911,20.12,35.25c-0.503,7.68-5.628,12.746-11.661,16.596c-9.35,5.97-19.345,10.26-30.847,9.733
		c-4.982-0.227-8.049,3.613-6.524,8.643c8.261,27.25,8.266,55.56,11.319,83.499c1.03,9.425,4.795,18.549,7.27,27.82
		c4.82,18.065,9.452,36.184,14.563,54.167c0.915,3.219,3.145,6.767,5.83,8.648c7.277,5.102,10.535,12.904,15.126,19.867
		c2.292,3.475,5.213,6.536,7.849,9.785c-0.548,0.615-1.096,1.229-1.643,1.844c-3.618-2.506-7.237-5.01-11.218-7.765
		c-0.082,1.593-0.161,3.112-0.259,4.985c-0.734-0.115-1.736,0.028-2.044-0.367c-3.12-4.015-5.991-8.225-9.203-12.161
		c-2.948-3.613-5.923-7.31-9.438-10.327c-4.561-3.912-7.825-8.207-10.025-13.999c-5.354-14.1-11.603-27.856-17.482-41.754
		c-2.352-5.559-4.938-11.037-6.957-16.714c-2.374-6.674-7.175-10.078-13.816-10.869c-4.463-0.528-5.205-3.068-5.816-6.865
		c-1.552-9.655-2.707-19.531-5.742-28.754c-3.854-11.713-9.594-13.75-20.551-12.152c-21.767,3.172-41.455,11.309-60.521,21.441
		c-7.776,4.133-15.001,6.59-24.254,4.572c-4.724-1.03-10.988,1.96-15.691,4.646c-5.877,3.353-7.581,3.572-10.37-3.04
		c-2.164-5.132-5.177-8.842-10.738-10.76c-5.072-1.748-9.082-1.188-13.789,1.471c-11.35,6.412-23.126,12.066-34.696,18.094
		c-2.51,1.307-4.956,2.78-7.291,4.382c-6.384,4.381-7.075,9.063-0.493,13.297c9.098,5.853,12.973,14.37,15.583,23.995
		c3.749,13.821,7.576,27.625,10.909,41.549c1.667,6.966,4.11,11.622,12.16,13.481c10.647,2.458,14.106,7.159,9.963,18.757
		c-1.234,3.45-3.021,5.268-6.814,5.609c-5.979,0.538-8.646,3.244-7.085,9.029c3.795,14.066-5.28,21.918-13.545,30.167
		c-1.589,1.586-5.765,2.99-6.882,2.11c-1.972-1.553-2.714-4.863-3.557-7.567c-0.423-1.359-0.234-3.092,0.189-4.501
		c2.749-9.16,1.99-17.834-2.835-26.201c-1.607-2.788-0.504-5.061,1.112-8.098c1.632-3.064,0.936-8.201-0.404-11.813
		c-1.802-4.859-5.837-8.865-7.802-13.69c-11.275-27.688-28.767-51.858-43.516-77.568c-5.436-9.474-6.044-12.804,0.437-21.675
		c7.47-10.223,15.116-20.35,23.275-30.019c3.16-3.743,7.925-6.139,11.98-9.118c3.073-2.257,6.178-4.468,8.625-6.236
		c-3.989-5.437-7.949-9.542-10.209-14.433c-1.209-2.615-0.198-6.892,1.091-9.863c1.52-3.497,1.922-6.394-0.132-9.584
		c-5.206-8.083-11.261-14.615-20.979-18.021c-22.065-7.734-43.722-16.627-65.664-24.73c-9.729-3.59-19.737-6.432-29.643-9.534
		c-1.231-0.387-2.662-0.566-3.921-0.358c-9.168,1.513-15.499-3.794-21.547-9.24c-1.934-1.74-3.833-4.896-3.718-7.31
		c0.72-15.255,0.995-30.734,9.816-44.181c1.115-1.703,3.462-4.097,4.763-3.833c1.991,0.405,4.466,2.529,5.152,4.48
		c2.12,6.032,3.761,12.269,5.09,18.531c2.269,10.679,8.711,16.878,19.265,18.907c19.842,3.81,39.707,7.505,59.555,11.289
		c14.831,2.828,29.879,4.992,42.84,13.715c0.882,0.593,2.109,0.929,3.184,0.944c9.937,0.151,17.319,5.09,24.38,11.651
		c11.773,10.936,23.883,21.558,36.449,31.56c3.061,2.437,8.43,2.293,12.78,2.526c0.904,0.049,2.693-3.428,2.863-5.385
		c0.33-3.806,0.776-5.664,5.411-4.053c4.886,1.697,9.609,0.193,13.793-2.995c1.399-1.066,3.238-2.18,4.876-2.18
		c4.281,0.002,7.6-1.324,10.429-4.612c0.895-1.042,2.962-1.442,4.506-1.473c2.823-0.058,5.796,1.026,8.448,0.449
		c3.465-0.753,9.024-2.137,9.477-4.179c0.755-3.415-0.642-8.967-3.221-11.14c-7.606-6.414-15.965-12.073-24.557-17.127
		c-6.127-3.606-10.787-8.152-14.355-14.104c-5.546-9.246-11.294-18.375-16.64-27.736c-4.542-7.952-11.05-13.813-18.393-18.979
		c-5.873-4.131-11.694-8.342-17.458-12.624c-1.269-0.943-2.197-2.342-2.625-4.806c1.45,0.309,2.887,0.695,4.35,0.909
		c2.443,0.357,4.901,0.605,7.354,0.9c-1.319-2.22-2.586-4.473-3.972-6.65c-2.098-3.292-4.277-6.533-6.422-9.796
		c0.571-0.482,1.142-0.964,1.713-1.446c2.557,1.83,5.114,3.659,7.671,5.489c0.315-0.242,0.631-0.485,0.948-0.728
		c-0.825-1.537-2.082-2.999-2.362-4.63c-0.311-1.813,0.267-3.779,0.458-5.679c1.42,0.442,2.834,0.903,4.263,1.318
		c0.988,0.288,2.311,1.052,2.941,0.681c4.313-2.536,7.261,0.149,10.135,2.553c6.353,5.312,11.043,11.755,13.855,19.703
		c4.799,13.558,14.992,23.394,24.436,33.623C288,150.468,292.375,153.02,296.535,156.25z"/>
	<path fill-rule="evenodd" clip-rule="evenodd" d="M136.721,16.149c18.31,0.104,36.155,18.141,35.969,36.355
		c-0.188,18.284-18.335,36.177-36.456,35.944c-18.356-0.237-36.162-18.291-35.924-36.426
		C100.553,33.554,118.322,16.045,136.721,16.149z"/>
</g>
</svg>
