<svg xmlns="http://www.w3.org/2000/svg" viewBox="0 0 786.64 237.54"><defs><style>.cls-1{fill:#fff;}.cls-2{fill:#2ecc71;}</style></defs><title>Asset 2</title><g id="Layer_2" data-name="Layer 2"><g id="Final"><path class="cls-1" d="M227.44,45.89q-9.56-3.28-15.69-3.28a10.68,10.68,0,0,0-6.06,1.5,4.92,4.92,0,0,0-2.21,4.35q0,4,4.28,6.2a75.81,75.81,0,0,0,13.55,4.78,131,131,0,0,1,17.4,6.06,32.06,32.06,0,0,1,11.91,9.34q5.06,6.28,5.06,16.54T250.18,109a32.9,32.9,0,0,1-14.83,10.77,58.23,58.23,0,0,1-20.89,3.56A80.2,80.2,0,0,1,188.72,119a71.9,71.9,0,0,1-22.32-11.91l11.12-22.53A66.55,66.55,0,0,0,196,95.58q10.91,4.49,18.75,4.49,4.85,0,7.56-1.85A6,6,0,0,0,225,92.94q0-4.13-4.42-6.35A75.61,75.61,0,0,0,206.9,82a124.58,124.58,0,0,1-17.25-5.63,30.64,30.64,0,0,1-11.84-9.05q-5-6.13-5-16.11A28.35,28.35,0,0,1,178,34.26a32.41,32.41,0,0,1,14.47-11.05,56.75,56.75,0,0,1,21.75-3.85,80.41,80.41,0,0,1,22.39,3.21A74.06,74.06,0,0,1,256,31.05L245,53.87A95.71,95.71,0,0,0,227.44,45.89Z"/><path class="cls-1" d="M336.17,30.91q10.62,9.27,10.62,26.24,0,17.83-10.62,27.66t-30,9.84l-15.69.14v26.81H260.8v-100h45.35Q325.54,21.64,336.17,30.91ZM315.06,68.27Q318.7,64.71,318.7,58T315.06,48q-3.64-3.49-10.34-3.49H290.46V71.84h14.26Q311.43,71.84,315.06,68.27Z"/><path class="cls-1" d="M429.15,26.49A49.76,49.76,0,0,1,448.68,45a50.42,50.42,0,0,1,7.06,26.45,51.43,51.43,0,0,1-7.06,26.74,49.92,49.92,0,0,1-19.54,18.68,60.9,60.9,0,0,1-55.83,0,50,50,0,0,1-19.46-18.68,51.42,51.42,0,0,1-7.06-26.74A50.42,50.42,0,0,1,353.85,45a49.87,49.87,0,0,1,19.46-18.47,61.48,61.48,0,0,1,55.83,0ZM389.5,48a25.82,25.82,0,0,0-9,9.77,28.48,28.48,0,0,0-3.35,13.76,28.88,28.88,0,0,0,3.35,13.83,26.23,26.23,0,0,0,9,9.91,22,22,0,0,0,12.19,3.64A21.15,21.15,0,0,0,413.6,95.3a25.18,25.18,0,0,0,8.63-9.84,30.38,30.38,0,0,0,3.14-13.9,30.06,30.06,0,0,0-3.14-13.76A24.84,24.84,0,0,0,413.67,48a21.35,21.35,0,0,0-12-3.56A22.38,22.38,0,0,0,389.5,48Z"/><path class="cls-1" d="M519.77,121.61l-13.26-27H490.82v27H461.16v-100h46.63q20.11,0,31.16,9.27T550,57.15a39.5,39.5,0,0,1-4.35,19A32.21,32.21,0,0,1,533.17,89l20.25,32.66ZM490.82,71.84h17q6.7,0,10.34-3.56T521.76,58q0-6.56-3.64-10.05t-10.34-3.49h-17Z"/><path class="cls-1" d="M551.28,21.64h87.84V45.31H610v76.29h-29.8V45.31H551.28Z"/><path class="cls-1" d="M697,45.89q-9.56-3.28-15.69-3.28a10.68,10.68,0,0,0-6.06,1.5,4.92,4.92,0,0,0-2.21,4.35q0,4,4.28,6.2a75.81,75.81,0,0,0,13.55,4.78,131,131,0,0,1,17.4,6.06,32.06,32.06,0,0,1,11.91,9.34q5.06,6.28,5.06,16.54T719.76,109a32.9,32.9,0,0,1-14.83,10.77A58.23,58.23,0,0,1,684,123.32,80.2,80.2,0,0,1,658.3,119,71.9,71.9,0,0,1,636,107.06l11.12-22.53a66.55,66.55,0,0,0,18.47,11.05q10.91,4.49,18.75,4.49,4.85,0,7.56-1.85a6,6,0,0,0,2.71-5.28q0-4.13-4.42-6.35A75.61,75.61,0,0,0,676.48,82a124.58,124.58,0,0,1-17.25-5.63,30.64,30.64,0,0,1-11.84-9.05q-5-6.13-5-16.11a28.35,28.35,0,0,1,5.13-16.9A32.41,32.41,0,0,1,662,23.21a56.75,56.75,0,0,1,21.75-3.85,80.41,80.41,0,0,1,22.39,3.21,74.06,74.06,0,0,1,19.39,8.48l-11,22.82A95.71,95.71,0,0,0,697,45.89Z"/><ellipse class="cls-1" cx="70.81" cy="71.58" rx="71.58" ry="70.81" transform="translate(-1.03 142.13) rotate(-89.79)"/><path id="SVGID" class="cls-2" d="M126.92,28.18c-8.7,5.37-19,11.51-24.57,18-1.16,1.35-2.33,2.89-3.3,4.23a6,6,0,0,1-5.23,6c-.2,2.31-.4,4.82-.41,6.94C92.6,74.17,93.9,89,94.82,100a6,6,0,0,1-6,6,5.69,5.69,0,0,1-6-5.62C84.62,94,86.38,86.3,87.76,79c-2.88-3.1-4.42-4.07-10.6-2.55L90.35,56c-.19-.19-.39-.19-.58-.39-2.52,2.69-5.23,5.58-7.94,8.27-11.43,11.92-31.4,38.28-31.4,38.28s-3.49,4.42-6.77,4.41a6,6,0,0,1-6-6c0-2.12,1.56-4.62,4.85-7.31C54,84.83,63.26,77.34,70.43,71.19c1-4.24,1.76-6.75-6.72-10.06l23.76-7.82c-.19-.19-.19-.39-.38-.77-6.56.75-13.32,2.07-19.88,3.21-6.37,1.33-17,4-23.36,4.74a6,6,0,0,1,0-12c5.4.6,13.5,1.21,24.5,2,8.68.22,14.86.25,18.72-.32a6,6,0,0,1,6-5.38c7.74-6.53,16.66-18.27,23.45-27.7A69.49,69.49,0,0,0,71.07,0C31.91-.14.15,31.77,0,71.32S31.38,143,70.55,143.16c39,.14,70.93-31.77,71.07-71.32a72.92,72.92,0,0,0-14.7-43.66"/><path class="cls-2" d="M772.88,79.78a36.19,36.19,0,0,1,.64,6.76c0,60.75-154.2,110-344.41,110-120,0-225.57-19.59-287.24-49.3a109.66,109.66,0,0,1-52.15,20.83c59.75,41.14,185,69.46,329.78,69.46,202.76,0,367.13-55.52,367.13-124C786.64,101.83,781.84,90.51,772.88,79.78Z"/></g></g></svg>